<svg width="20" height="20" viewBox="0 0 20 20" fill="none" xmlns="http://www.w3.org/2000/svg">
<path d="M13.8416 18.9925C12.2848 18.9925 10.8216 18.3865 9.72076 17.2857L2.51036 10.0753C1.40956 8.97488 0.803558 7.51128 0.803558 5.95488C0.803558 4.39848 1.40956 2.93488 2.51036 1.83448C3.20356 1.14128 3.88196 0.804077 4.58476 0.804077C5.81876 0.804077 6.79556 1.83128 7.92716 3.02088C8.17756 3.28448 8.43836 3.55848 8.71356 3.83368C8.76036 3.88048 9.17196 4.31488 9.17196 5.10648C9.17196 5.89768 8.50676 6.58608 8.43036 6.66208C7.73876 7.35368 7.58756 8.42608 8.05836 9.27928C8.32476 9.60968 10.3116 11.5597 10.672 11.8161C10.954 11.9433 11.2668 12.0105 11.5784 12.0105C12.1664 12.0105 12.7188 11.7817 13.1344 11.3661C13.21 11.2905 13.8984 10.6245 14.69 10.6245C15.4816 10.6245 15.9156 11.0361 15.9628 11.0829C16.238 11.3581 16.512 11.6185 16.7752 11.8689C17.9564 12.9929 18.9768 13.9629 18.992 15.1849C19.0008 15.8969 18.6644 16.5845 17.9624 17.2861C16.8616 18.3869 15.3984 18.9925 13.8416 18.9925ZM4.58476 2.00408C4.21636 2.00408 3.81556 2.22608 3.35916 2.68248C2.48516 3.55648 2.00396 4.71848 2.00396 5.95448C2.00396 7.19048 2.48516 8.35248 3.35916 9.22648L10.5696 16.4373C11.4436 17.3113 12.6056 17.7925 13.842 17.7925C15.0784 17.7925 16.2404 17.3113 17.1144 16.4373C17.5752 15.9765 17.7972 15.5713 17.7924 15.1997C17.7836 14.4833 16.9332 13.6749 15.9488 12.7381C15.6784 12.4809 15.3968 12.2133 15.1148 11.9309C15.1152 11.9317 15.1156 11.9317 15.1152 11.9317C15.1128 11.9317 14.9696 11.8237 14.6904 11.8237C14.4788 11.8237 14.1424 12.0573 13.982 12.2153C13.3412 12.8561 12.4876 13.2097 11.5792 13.2097C11.0836 13.2097 10.5856 13.0993 10.138 12.8901C9.68876 12.6801 7.18796 10.1741 7.02996 9.89688C6.27516 8.57168 6.50276 6.89208 7.58236 5.81248C7.73876 5.65368 7.97236 5.31728 7.97236 5.10528C7.97236 4.81368 7.85436 4.67048 7.84956 4.66448C7.58276 4.39888 7.31516 4.11728 7.05796 3.84728C6.11676 2.85848 5.30396 2.00408 4.58476 2.00408Z" fill="white"/>
</svg>
